<svg xmlns="http://www.w3.org/2000/svg" xmlns:xlink="http://www.w3.org/1999/xlink" version="1.1" id="Layer_1" x="0px" y="0px" width="347.161px" height="409.947px" viewBox="0 0 347.161 409.947" enable-background="new 0 0 347.161 409.947" xml:space="preserve"><path d="M312.911 106.92l-59.136-0.008c-0.014-0.68-0.026-1.365-0.04-2.038c-0.439-21.571-2.238-46.362-12.238-66.728 C229.057 12.8 206.8 0 175.5 0c-33.834 0-57.48 12.933-70.281 38.354c-10.042 19.94-11.651 44.154-11.894 67.3 c-0.004 0.431-0.009 0.866-0.013 1.299l-59.591 0.031L0 409.947h347.161L312.911 106.92z M113.285 105.8 c0.557-52.907 11.153-85.868 62.176-85.868c23.763 0 39 8.6 48.1 26.982c8.279 16.9 9.8 38.9 10.2 58.3 c0.011 0.5 0 1.1 0 1.636l-120.497 0.01C113.278 106.5 113.3 106.2 113.3 105.824z M51.583 126.941l41.544 0 c-0.083 16.231-0.084 29.995-0.084 30.995h20c0-1 0.001-14.795 0.085-31.01l120.896-0.023c0.122 16.4 0.1 30.4 0.1 30.6 l20 0.104c0.002-0.201 0.07-14.205-0.051-30.711l41.02 0.021l29.729 263.024H22.347L51.583 126.941z"/></svg>